<svg xmlns="http://www.w3.org/2000/svg" viewBox="0 0 1164.68 499.88"><defs><style>.cls-1{fill:#0b3d91;}.cls-2{fill:#fff;}.cls-3{fill:#fea620;}</style></defs><title>MenloHacksIILogo Inverted</title><g id="Shape_2_Image" data-name="Shape 2 Image"><path class="cls-1" d="M371.52,301.44h826.56a5.73,5.73,0,0,0,1.1.45c14.34,2.71,22.79,12.81,22.79,27.32q0,87.47,0,174.94c0,16.16-11.33,27.57-27.42,27.57q-409.75,0-819.49,0a30.7,30.7,0,0,1-6.89-.72c-12.6-2.93-20.53-13.33-20.53-26.82q0-87.47,0-174.94c0-.72,0-1.44,0-2.16a26.33,26.33,0,0,1,20.63-24.84Z" transform="translate(-58.36 -33.4)"/><path class="cls-1" d="M371.52,301.44l-3.22.77a26.33,26.33,0,0,0-20.63,24.84c0,.72,0,1.44,0,2.16q0,87.47,0,174.94c0,13.5,7.92,23.9,20.53,26.82a30.7,30.7,0,0,0,6.89.72q409.75,0,819.49,0c16.09,0,27.41-11.4,27.42-27.57q0-87.47,0-174.94c0-14.51-8.45-24.62-22.79-27.32a5.73,5.73,0,0,1-1.1-.45h25V533.28H347V301.44Z" transform="translate(-58.36 -33.4)"/></g><g id="M_Image" data-name="M Image"><path class="cls-1" d="M127.36,300.92h3c11.2,0,22.4,0,33.6,0,3.83,0,3.65.63,3.65-3.55q0-63,0-126v-3l.63-.07c.31.69.63,1.38.91,2.08q8.59,21.32,17.18,42.64,17.26,42.87,34.48,85.76A2.8,2.8,0,0,0,224,301c4.16-.12,8.33-.18,12.47,0,2.21.11,3.16-.66,4-2.67q25.64-64,51.42-128c.3-.76.7-1.48,1-2.22l.59.14V300.76h40.36V110.47h-2.74c-17.12,0-34.24.06-51.35-.07-2.28,0-3.14.8-3.93,2.76q-21.88,54.71-43.9,109.36c-.37.92-.78,1.82-1.41,3.28-.56-1.32-.9-2.09-1.22-2.87q-22.11-55-44.18-110c-.71-1.78-1.55-2.51-3.59-2.5-17.12.1-34.24.06-51.35.06h-2.79Z" transform="translate(-58.36 -33.4)"/><path class="cls-1" d="M127.36,300.92V110.47h2.79c17.12,0,34.24,0,51.35-.06,2,0,2.87.71,3.59,2.5q22,55,44.18,110c.32.78.66,1.56,1.22,2.87.63-1.46,1-2.36,1.41-3.28q22-54.67,43.9-109.36c.78-2,1.65-2.77,3.93-2.76,17.12.12,34.24.07,51.35.07h2.74V300.76H293.46V168.25l-.59-.14c-.35.74-.74,1.46-1,2.22q-25.74,64-51.42,128c-.8,2-1.76,2.78-4,2.67-4.15-.21-8.32-.14-12.47,0a2.8,2.8,0,0,1-3.13-2.13q-17.18-42.91-34.48-85.76-8.58-21.32-17.18-42.64c-.28-.7-.61-1.39-.91-2.08l-.63.07v3q0,63,0,126c0,4.18.18,3.54-3.65,3.55-11.2,0-22.4,0-33.6,0Z" transform="translate(-58.36 -33.4)"/></g><g id="II_Image" data-name="II Image"><path class="cls-2" d="M1105.64,416.4c0,22,0,44,0,66,0,2.11.62,2.75,2.73,2.73q14.87-.14,29.74,0c2.17,0,2.68-.74,2.68-2.78q-.07-65.72,0-131.44c0-2.11-.64-2.75-2.74-2.73-9.75.09-19.51,0-29.26,0-3.11,0-3.11,0-3.11,3.23Q1105.64,383.9,1105.64,416.4Zm49,.13c0,21.84,0,43.68,0,65.52,0,2.23.51,3.07,2.91,3q14.64-.19,29.28,0c2.35,0,3-.72,3-3q-.09-65.4,0-130.8c0-2.34-.51-3.21-3-3.17q-14.52.21-29,0c-2.48,0-3.08.74-3.07,3.14C1154.67,373,1154.63,394.77,1154.63,416.53Z" transform="translate(-58.36 -33.4)"/><path class="cls-2" d="M1105.64,416.4q0-32.5,0-65c0-3.22,0-3.22,3.11-3.23,9.75,0,19.51.05,29.26,0,2.1,0,2.74.63,2.74,2.73q-.08,65.72,0,131.44c0,2-.51,2.81-2.68,2.78q-14.87-.15-29.74,0c-2.11,0-2.74-.62-2.73-2.73C1105.67,460.37,1105.64,438.39,1105.64,416.4Z" transform="translate(-58.36 -33.4)"/><path class="cls-2" d="M1154.63,416.53c0-21.76,0-43.52-.05-65.28,0-2.4.6-3.17,3.07-3.14q14.52.21,29,0c2.52,0,3,.83,3,3.17q-.09,65.4,0,130.8c0,2.28-.61,3-3,3q-14.64-.18-29.28,0c-2.4,0-2.92-.81-2.91-3C1154.66,460.21,1154.63,438.37,1154.63,416.53Z" transform="translate(-58.36 -33.4)"/></g><g id="ACKS_Image" data-name="ACKS Image"><path class="cls-2" d="M964.14,443.81c-.13.2-.29.48-.47.74-4.37,6.11-8.71,12.25-13.13,18.32-.93,1.27-.48,2.06.53,2.78,5.14,3.64,10,7.92,15.51,10.74,17.74,9,36.62,10.54,56,6.93a47.47,47.47,0,0,0,21.29-9.39,36.91,36.91,0,0,0,13.86-24.64c1.19-8.45.45-16.6-3.83-24.15-4.59-8.12-11.8-13.36-20.32-16.36-9.62-3.39-19.59-5.77-29.35-8.75-5.56-1.69-11.27-3.17-16.47-5.67-7.45-3.58-7.93-12.75-1.38-17.9a20.83,20.83,0,0,1,12.79-4.15c14.74-.31,28.08,3.72,39.49,13.36a8.34,8.34,0,0,0,1.33.73c4.75-6.26,9.42-12.44,14.14-18.58.91-1.19.28-1.81-.58-2.56a62.79,62.79,0,0,0-17.47-10.79,83.31,83.31,0,0,0-37.27-5.88c-9.76.58-19,3-27.19,8.29-13.88,9-19.59,22.6-17.48,37.72,1.6,11.43,8.17,19.36,18.08,24.76,10.1,5.5,21.28,7.66,32.24,10.57,6.53,1.73,13.19,3.52,19.23,6.43,8.49,4.09,8.91,13.72,1.46,19.55a25.36,25.36,0,0,1-14.26,5,56.51,56.51,0,0,1-34.61-8.32C972.15,450.07,968.4,446.94,964.14,443.81Zm-20,38.84c-1.08-1.38-1.75-2.25-2.43-3.11Q915.6,447,889.53,414.38c-1.14-1.42-1.25-2.37,0-3.87q22.4-26.29,44.65-52.7c2-2.4,4-4.81,6.31-7.53-1.23-.06-1.93-.12-2.63-.12-9.44,0-18.88,0-28.31,0a5,5,0,0,0-4.44,2.16q-21.88,27.79-43.89,55.48a21.5,21.5,0,0,1-2.26,2c0-1.71,0-2.65,0-3.6,0-17.76,0-35.51,0-53.27,0-2-.45-2.85-2.65-2.81-7.44.12-14.88.09-22.31,0-1.85,0-2.51.54-2.51,2.46q.07,63.82,0,127.65c0,1.92.66,2.47,2.51,2.45,7.28-.08,14.56-.12,21.83,0,2.37,0,3.18-.54,3.15-3-.13-11.76-.09-23.51,0-35.27a6.55,6.55,0,0,1,1.14-3.71c2.47-3.24,5.22-6.26,7.79-9.43a10.62,10.62,0,0,0,1.11-2.42,21.71,21.71,0,0,1,2.7,2.82q18.52,24.48,37,49a4.6,4.6,0,0,0,4.22,2c6.56-.09,13.12,0,19.67,0ZM813.22,380.1a15.93,15.93,0,0,0-.76-1.7c-6-9.89-13.85-18-24.22-23.33-15.27-7.83-31.41-8.61-47.83-4.85-19.08,4.37-34,14.74-43.78,32-8.28,14.63-10.25,30.42-7.62,46.83,2.88,18,11.7,32.53,26.62,43s31.68,14.23,49.77,12.61a57.61,57.61,0,0,0,34-14.41,65.33,65.33,0,0,0,14-17.33L790.2,441.67c-2.15,2.78-3.91,5.47-6.07,7.79-14.33,15.4-38.33,14.07-53.22,1.35-15.6-13.33-18.61-38.26-9.67-55.91,8.56-16.9,25.53-24.23,42.15-22,10.77,1.45,19.14,7.27,25,16.45,1,1.55,1.75,2.33,3.75,1.28,5.29-2.8,10.72-5.35,16.09-8C809.91,381.81,811.51,381,813.22,380.1Z" transform="translate(-58.36 -33.4)"/><path class="cls-2" d="M543.88,482.45c1.6-4.18,3.11-8.19,4.66-12.19q22.56-58.34,45.07-116.7c1-2.55,2.14-3.54,5-3.48,9.59.21,19.19.12,28.79,0a3,3,0,0,1,3.36,2.25q24.61,64.1,49.3,128.16c.22.57.36,1.18.59,1.94-.81.07-1.43.17-2,.17-9,0-17.91,0-26.87,0a2.81,2.81,0,0,1-3.11-2.23c-2.1-6-4.39-12-6.47-18a3,3,0,0,0-3.28-2.35q-26.51.09-53,0a2.87,2.87,0,0,0-3.13,2.24c-2.23,6.16-4.58,12.27-6.8,18.44a2.4,2.4,0,0,1-2.57,1.94c-9.36,0-18.71,0-28.07,0A12.51,12.51,0,0,1,543.88,482.45Zm68.92-104.08-.85-.05-20.79,57.43c1.19.15,1.81.29,2.42.29q18.69,0,37.39,0c2.52,0,2.71-.35,1.8-2.89q-9.54-26.34-19.09-52.67C613.42,379.77,613.09,379.08,612.79,378.37Z" transform="translate(-58.36 -33.4)"/><path class="cls-2" d="M964.14,443.81c4.26,3.13,8,6.27,12.12,8.83a56.51,56.51,0,0,0,34.61,8.32,25.36,25.36,0,0,0,14.26-5c7.44-5.83,7-15.46-1.46-19.55-6-2.91-12.7-4.7-19.23-6.43-11-2.91-22.14-5.07-32.24-10.57-9.92-5.4-16.49-13.33-18.08-24.76-2.11-15.13,3.59-28.74,17.48-37.72,8.24-5.33,17.43-7.71,27.19-8.29a83.31,83.31,0,0,1,37.27,5.88,62.79,62.79,0,0,1,17.47,10.79c.86.75,1.5,1.37.58,2.56-4.71,6.14-9.38,12.32-14.14,18.58a8.34,8.34,0,0,1-1.33-.73c-11.41-9.64-24.75-13.66-39.49-13.36a20.83,20.83,0,0,0-12.79,4.15c-6.55,5.15-6.08,14.32,1.38,17.9,5.2,2.5,10.91,4,16.47,5.67,9.77,3,19.74,5.36,29.35,8.75,8.52,3,15.73,8.25,20.32,16.36,4.27,7.55,5,15.7,3.83,24.15a36.91,36.91,0,0,1-13.86,24.64,47.47,47.47,0,0,1-21.29,9.39c-19.38,3.6-38.26,2.09-56-6.93-5.55-2.82-10.37-7.1-15.51-10.74-1-.71-1.46-1.5-.53-2.78,4.43-6.07,8.77-12.21,13.13-18.32C963.85,444.29,964,444,964.14,443.81Z" transform="translate(-58.36 -33.4)"/><path class="cls-2" d="M944.09,482.65H932.64c-6.56,0-13.12-.05-19.67,0a4.6,4.6,0,0,1-4.22-2q-18.42-24.55-37-49a21.71,21.71,0,0,0-2.7-2.82,10.62,10.62,0,0,1-1.11,2.42c-2.56,3.17-5.31,6.19-7.79,9.43a6.55,6.55,0,0,0-1.14,3.71c-.08,11.76-.12,23.51,0,35.27,0,2.51-.78,3.1-3.15,3-7.28-.14-14.56-.1-21.83,0-1.85,0-2.51-.52-2.51-2.45q.07-63.82,0-127.65c0-1.92.66-2.48,2.51-2.46,7.44.08,14.88.11,22.31,0,2.2,0,2.66.8,2.65,2.81-.06,17.76,0,35.51,0,53.27,0,.95,0,1.89,0,3.6a21.5,21.5,0,0,0,2.26-2q22-27.72,43.89-55.48a5,5,0,0,1,4.44-2.16c9.44.09,18.87,0,28.31,0,.7,0,1.4.06,2.63.12-2.28,2.72-4.28,5.14-6.31,7.53q-22.3,26.37-44.65,52.7c-1.27,1.5-1.16,2.45,0,3.87q26.1,32.55,52.13,65.16C942.34,480.4,943,481.27,944.09,482.65Z" transform="translate(-58.36 -33.4)"/><path class="cls-2" d="M813.22,380.1c-1.7.87-3.31,1.71-4.94,2.51-5.37,2.66-10.8,5.21-16.09,8-2,1.06-2.75.28-3.75-1.28-5.9-9.18-14.28-15-25-16.45-16.62-2.23-33.59,5.09-42.15,22-8.94,17.65-5.93,42.58,9.67,55.91,14.89,12.72,38.89,14.05,53.22-1.35,2.16-2.32,3.92-5,6.07-7.79l23.17,11.22a65.33,65.33,0,0,1-14,17.33,57.61,57.61,0,0,1-34,14.41c-18.09,1.62-34.85-2.12-49.77-12.61S691.88,447,689,429c-2.63-16.41-.66-32.2,7.62-46.83,9.75-17.21,24.7-27.58,43.78-32,16.42-3.76,32.56-3,47.83,4.85,10.37,5.32,18.18,13.44,24.22,23.33A15.93,15.93,0,0,1,813.22,380.1Z" transform="translate(-58.36 -33.4)"/></g><g id="H_Image" data-name="H Image"><path class="cls-2" d="M374.12,416.55q0,39.48,0,79c0,2.25.55,3.06,2.93,3,9.36-.13,18.72-.05,28.08-.05,3.15,0,3.16,0,3.16-3.18q0-31.32,0-62.64c0-3.3,0-3.3,3.26-3.3h72c3.42,0,3.42,0,3.43,3.42,0,21,0,41.92,0,62.88,0,2.2.62,2.89,2.84,2.87q14.52-.16,29,0c2,0,2.79-.51,2.79-2.68q-.08-79.2,0-158.4c0-2.29-.8-2.84-2.93-2.82-9.52.09-19,0-28.56,0-3.13,0-3.14,0-3.14,3.24q0,29,0,58.08c0,3.13,0,3.14-3.21,3.14H411.48c-3.23,0-3.23,0-3.23-3.32,0-19.44,0-38.88,0-58.32,0-2.24-.71-2.88-2.88-2.86-9.28.1-18.56,0-27.84,0-3.44,0-3.45,0-3.45,3.41Q374.12,377.31,374.12,416.55Z" transform="translate(-58.36 -33.4)"/><path class="cls-2" d="M374.12,416.55q0-39.24,0-78.48c0-3.4,0-3.41,3.45-3.41,9.28,0,18.56.05,27.84,0,2.18,0,2.89.62,2.88,2.86-.08,19.44,0,38.88,0,58.32,0,3.32,0,3.32,3.23,3.32h72.24c3.2,0,3.21,0,3.21-3.14q0-29,0-58.08c0-3.22,0-3.24,3.14-3.24,9.52,0,19,0,28.56,0,2.13,0,2.93.54,2.93,2.82q-.09,79.2,0,158.4c0,2.17-.74,2.7-2.79,2.68q-14.52-.13-29,0c-2.23,0-2.85-.66-2.84-2.87.07-21,0-41.92,0-62.88,0-3.42,0-3.42-3.43-3.42h-72c-3.25,0-3.26,0-3.26,3.3q0,31.32,0,62.64c0,3.17,0,3.17-3.16,3.18-9.36,0-18.72-.07-28.08.05-2.38,0-2.94-.77-2.93-3Q374.18,456,374.12,416.55Z" transform="translate(-58.36 -33.4)"/></g><g id="Shape_Image" data-name="Shape Image"><path class="cls-3" d="M230.54,378.08c-95.9-.61-172.31-77.27-172.18-172.56a172.28,172.28,0,0,1,344.56.2C402.87,301.56,325.89,377.63,230.54,378.08Zm-.07-24.64c81.45.32,147.85-66.14,148-147.53S312.29,58,230.93,57.87c-81.56-.15-148,66.23-148.1,147.7S149.09,353.57,230.47,353.44Z" transform="translate(-58.36 -33.4)"/></g><g id="ENLO_Image" data-name="ENLO Image"><path class="cls-1" d="M493.75,143.05v132.3h27.75V189.58a10.1,10.1,0,0,1,2.83,2.86Q554,233,583.62,273.61a4,4,0,0,0,3.72,1.93c7.36-.1,14.72,0,22.08,0,.84,0,1.69-.09,2.49-.13V143.05H587.5c-3.26,0-3.27,0-3.27,3.23q0,38.28,0,76.56v2.92a6.5,6.5,0,0,1-2.37-2.13q-29-39.29-57.92-78.6a4.27,4.27,0,0,0-3.94-2c-7.28.11-14.56,0-21.84,0Zm-88.47,52.89c0-1.23,0-2.09,0-2.95q0-11.16,0-22.31c0-3.16,0-3.16,3.14-3.17H470.8V143.27H377.65v132h93.19V251h-3c-19.91,0-39.83,0-59.74,0-2.21,0-2.87-.64-2.84-2.84q.18-12.35,0-24.71c0-2.29.58-3,2.92-3,19.51.09,39,.05,58.54.05h2.74V195.94Zm261.47-52.7H638.89v132.1h83.92V251H666.75Z" transform="translate(-58.36 -33.4)"/><path class="cls-1" d="M808.49,140.64c3.71.48,7.44.83,11.13,1.44,28.29,4.69,49.62,25.78,54.35,54.07,2.87,17.15.73,33.65-8.08,48.88-9.34,16.15-23.38,26.23-41.41,30.56-18.88,4.54-37.19,2.85-54.34-6.65-16.81-9.31-27.27-23.69-31.49-42.33-4.47-19.75-2.07-38.7,9-55.93,9.68-15,23.75-24.08,41.12-28,3.72-.83,7.57-1.08,11.36-1.62.86-.12,1.71-.31,2.56-.47Zm-43.17,70.14c0,9.28,3.3,19.88,8.93,27.16,8.49,11,19.87,15.67,33.53,15.1,13.06-.55,23.58-6,30.89-17s9-23.39,6.84-36.3c-2.94-17.82-15-30.54-32.32-33.49-14-2.38-26.59.94-36.53,11.58C768.44,186.69,765.57,197.61,765.32,210.78Z" transform="translate(-58.36 -33.4)"/><path class="cls-1" d="M493.75,143.05h4.4c7.28,0,14.56.06,21.84,0a4.27,4.27,0,0,1,3.94,2q28.91,39.34,57.92,78.6a6.5,6.5,0,0,0,2.37,2.13v-2.92q0-38.28,0-76.56c0-3.23,0-3.23,3.27-3.23h24.41V275.36c-.8,0-1.65.13-2.49.13-7.36,0-14.72-.05-22.08,0a4,4,0,0,1-3.72-1.93Q554,233,524.33,192.44a10.1,10.1,0,0,0-2.83-2.86v85.77H493.75Z" transform="translate(-58.36 -33.4)"/><path class="cls-1" d="M405.28,195.94h64.15v24.69h-2.74c-19.51,0-39,0-58.54-.05-2.34,0-3,.67-2.92,3q.2,12.35,0,24.71c0,2.2.62,2.85,2.84,2.84,19.91-.08,39.83,0,59.74,0h3V275.3H377.65v-132H470.8v24.24H408.42c-3.13,0-3.14,0-3.14,3.17q0,11.16,0,22.31C405.28,193.85,405.28,194.71,405.28,195.94Z" transform="translate(-58.36 -33.4)"/><path class="cls-1" d="M666.75,143.24V251h56.05v24.38H638.89V143.24Z" transform="translate(-58.36 -33.4)"/></g></svg>